<mxfile host="app.diagrams.net" modified="2023-10-02T00:23:08.303Z" agent="Mozilla/5.0 (Windows NT 10.0; Win64; x64) AppleWebKit/537.36 (KHTML, like Gecko) Chrome/117.0.0.0 Safari/537.36" etag="moEdxZ7TulnpjMrGKsE_" version="22.0.0" type="github">
  <diagram id="C5RBs43oDa-KdzZeNtuy" name="Page-1">
    <mxGraphModel dx="2927" dy="1132" grid="1" gridSize="10" guides="1" tooltips="1" connect="1" arrows="1" fold="1" page="1" pageScale="1" pageWidth="827" pageHeight="1169" math="0" shadow="0">
      <root>
        <mxCell id="WIyWlLk6GJQsqaUBKTNV-0" />
        <mxCell id="WIyWlLk6GJQsqaUBKTNV-1" parent="WIyWlLk6GJQsqaUBKTNV-0" />
        <mxCell id="hK4hUFkUPG_2YT95JGvy-0" value="Tours" style="swimlane;fontStyle=0;childLayout=stackLayout;horizontal=1;startSize=26;fillColor=none;horizontalStack=0;resizeParent=1;resizeParentMax=0;resizeLast=0;collapsible=1;marginBottom=0;whiteSpace=wrap;html=1;fontSize=15;" parent="WIyWlLk6GJQsqaUBKTNV-1" vertex="1">
          <mxGeometry x="120" y="500" width="290" height="286" as="geometry">
            <mxRectangle x="240" y="585" width="70" height="30" as="alternateBounds" />
          </mxGeometry>
        </mxCell>
        <mxCell id="hK4hUFkUPG_2YT95JGvy-1" value="Pk &lt;span style=&quot;white-space: pre; font-size: 15px;&quot;&gt;&#x9;&lt;/span&gt;id&lt;span style=&quot;white-space: pre; font-size: 15px;&quot;&gt;&#x9;&lt;/span&gt;&lt;span style=&quot;white-space: pre; font-size: 15px;&quot;&gt;&#x9;&lt;span style=&quot;white-space: pre; font-size: 15px;&quot;&gt;&#x9;&lt;span style=&quot;white-space: pre; font-size: 15px;&quot;&gt;&#x9;&lt;/span&gt;&lt;/span&gt;&lt;/span&gt;tinyInt&lt;span style=&quot;white-space: pre; font-size: 15px;&quot;&gt;&#x9;&lt;/span&gt;" style="text;strokeColor=none;fillColor=none;align=left;verticalAlign=top;spacingLeft=4;spacingRight=4;overflow=hidden;rotatable=0;points=[[0,0.5],[1,0.5]];portConstraint=eastwest;whiteSpace=wrap;html=1;fontSize=15;" parent="hK4hUFkUPG_2YT95JGvy-0" vertex="1">
          <mxGeometry y="26" width="290" height="26" as="geometry" />
        </mxCell>
        <mxCell id="hK4hUFkUPG_2YT95JGvy-2" value="&lt;span style=&quot;white-space: pre; font-size: 15px;&quot;&gt;&#x9;&lt;/span&gt;name&lt;span style=&quot;white-space: pre; font-size: 15px;&quot;&gt;&#x9;&lt;/span&gt;&lt;span style=&quot;white-space: pre; font-size: 15px;&quot;&gt;&#x9;&lt;span style=&quot;white-space: pre; font-size: 15px;&quot;&gt;&#x9;&lt;/span&gt;&lt;/span&gt;varchar(100)" style="text;strokeColor=none;fillColor=none;align=left;verticalAlign=top;spacingLeft=4;spacingRight=4;overflow=hidden;rotatable=0;points=[[0,0.5],[1,0.5]];portConstraint=eastwest;whiteSpace=wrap;html=1;fontSize=15;" parent="hK4hUFkUPG_2YT95JGvy-0" vertex="1">
          <mxGeometry y="52" width="290" height="26" as="geometry" />
        </mxCell>
        <mxCell id="hK4hUFkUPG_2YT95JGvy-3" value="&lt;span style=&quot;white-space: pre; font-size: 15px;&quot;&gt;&#x9;&lt;/span&gt;description&amp;nbsp;&amp;nbsp;&lt;span style=&quot;font-size: 15px;&quot;&gt;&lt;span style=&quot;white-space: pre; font-size: 15px;&quot;&gt;&amp;nbsp;&amp;nbsp;&amp;nbsp;&amp;nbsp;&lt;span style=&quot;white-space: pre; font-size: 15px;&quot;&gt;&#x9;&lt;/span&gt;&lt;span style=&quot;white-space: pre; font-size: 15px;&quot;&gt;&#x9;&lt;/span&gt;&lt;/span&gt;&lt;/span&gt;varchar(1000)&lt;span style=&quot;white-space: pre; font-size: 15px;&quot;&gt;&#x9;&lt;/span&gt;&lt;span style=&quot;white-space: pre; font-size: 15px;&quot;&gt;&#x9;&lt;/span&gt;&lt;span style=&quot;white-space: pre; font-size: 15px;&quot;&gt;&#x9;&lt;/span&gt;&lt;span style=&quot;white-space: pre; font-size: 15px;&quot;&gt;&#x9;&lt;/span&gt;&lt;span style=&quot;white-space: pre; font-size: 15px;&quot;&gt;&#x9;&lt;/span&gt;&lt;br style=&quot;font-size: 15px;&quot;&gt;&lt;br style=&quot;font-size: 15px;&quot;&gt;" style="text;strokeColor=none;fillColor=none;align=left;verticalAlign=top;spacingLeft=4;spacingRight=4;overflow=hidden;rotatable=0;points=[[0,0.5],[1,0.5]];portConstraint=eastwest;whiteSpace=wrap;html=1;fontSize=15;" parent="hK4hUFkUPG_2YT95JGvy-0" vertex="1">
          <mxGeometry y="78" width="290" height="26" as="geometry" />
        </mxCell>
        <mxCell id="hK4hUFkUPG_2YT95JGvy-5" value="&lt;span style=&quot;white-space: pre; font-size: 15px;&quot;&gt;&#x9;&lt;/span&gt;price&lt;span style=&quot;white-space: pre; font-size: 15px;&quot;&gt;&#x9;&lt;/span&gt;&lt;span style=&quot;white-space: pre; font-size: 15px;&quot;&gt;&#x9;&lt;span style=&quot;white-space: pre; font-size: 15px;&quot;&gt;&#x9;&lt;/span&gt;&lt;/span&gt;int" style="text;strokeColor=none;fillColor=none;align=left;verticalAlign=top;spacingLeft=4;spacingRight=4;overflow=hidden;rotatable=0;points=[[0,0.5],[1,0.5]];portConstraint=eastwest;whiteSpace=wrap;html=1;fontSize=15;" parent="hK4hUFkUPG_2YT95JGvy-0" vertex="1">
          <mxGeometry y="104" width="290" height="26" as="geometry" />
        </mxCell>
        <mxCell id="4q8H9GobpHbrrhZok623-0" value="&lt;span style=&quot;white-space: pre; font-size: 15px;&quot;&gt;&#x9;&lt;/span&gt;departure&lt;span style=&quot;white-space: pre; font-size: 15px;&quot;&gt;&#x9;&lt;/span&gt;_day&lt;span style=&quot;white-space: pre; font-size: 15px;&quot;&gt;&#x9;&lt;/span&gt;datetime&lt;span style=&quot;white-space: pre; font-size: 15px;&quot;&gt;&#x9;&lt;/span&gt;" style="text;strokeColor=none;fillColor=none;align=left;verticalAlign=top;spacingLeft=4;spacingRight=4;overflow=hidden;rotatable=0;points=[[0,0.5],[1,0.5]];portConstraint=eastwest;whiteSpace=wrap;html=1;fontSize=15;" parent="hK4hUFkUPG_2YT95JGvy-0" vertex="1">
          <mxGeometry y="130" width="290" height="26" as="geometry" />
        </mxCell>
        <mxCell id="hK4hUFkUPG_2YT95JGvy-22" value="&lt;span style=&quot;white-space: pre; font-size: 15px;&quot;&gt;&#x9;&lt;/span&gt;duration&lt;span style=&quot;white-space: pre; font-size: 15px;&quot;&gt;&#x9;&lt;/span&gt;&amp;nbsp;&lt;span style=&quot;white-space: pre; font-size: 15px;&quot;&gt;&#x9;&lt;span style=&quot;white-space: pre; font-size: 15px;&quot;&gt;&#x9;&lt;/span&gt;t&lt;/span&gt;inyint" style="text;strokeColor=none;fillColor=none;align=left;verticalAlign=top;spacingLeft=4;spacingRight=4;overflow=hidden;rotatable=0;points=[[0,0.5],[1,0.5]];portConstraint=eastwest;whiteSpace=wrap;html=1;fontSize=15;" parent="hK4hUFkUPG_2YT95JGvy-0" vertex="1">
          <mxGeometry y="156" width="290" height="26" as="geometry" />
        </mxCell>
        <mxCell id="hK4hUFkUPG_2YT95JGvy-10" value="&lt;span style=&quot;font-size: 15px;&quot;&gt;&lt;span style=&quot;white-space: pre; font-size: 15px;&quot;&gt;&lt;span style=&quot;white-space: pre; font-size: 15px;&quot;&gt;&#x9;&lt;/span&gt;&lt;/span&gt;&lt;/span&gt;image_url&lt;span style=&quot;white-space: pre; font-size: 15px;&quot;&gt;&#x9;&lt;span style=&quot;white-space: pre; font-size: 15px;&quot;&gt;&#x9;&lt;/span&gt;v&lt;/span&gt;archar(500)" style="text;strokeColor=none;fillColor=none;align=left;verticalAlign=top;spacingLeft=4;spacingRight=4;overflow=hidden;rotatable=0;points=[[0,0.5],[1,0.5]];portConstraint=eastwest;whiteSpace=wrap;html=1;fontSize=15;" parent="hK4hUFkUPG_2YT95JGvy-0" vertex="1">
          <mxGeometry y="182" width="290" height="26" as="geometry" />
        </mxCell>
        <mxCell id="hK4hUFkUPG_2YT95JGvy-11" value="Fk&lt;span style=&quot;white-space: pre; font-size: 15px;&quot;&gt;&#x9;&lt;/span&gt;cateogry_id&lt;span style=&quot;white-space: pre; font-size: 15px;&quot;&gt;&#x9;&lt;/span&gt;&lt;span style=&quot;white-space: pre; font-size: 15px;&quot;&gt;&#x9;&lt;/span&gt;tinyint" style="text;strokeColor=none;fillColor=none;align=left;verticalAlign=top;spacingLeft=4;spacingRight=4;overflow=hidden;rotatable=0;points=[[0,0.5],[1,0.5]];portConstraint=eastwest;whiteSpace=wrap;html=1;fontSize=15;" parent="hK4hUFkUPG_2YT95JGvy-0" vertex="1">
          <mxGeometry y="208" width="290" height="26" as="geometry" />
        </mxCell>
        <mxCell id="hK4hUFkUPG_2YT95JGvy-7" value="Fk&lt;span style=&quot;white-space: pre; font-size: 15px;&quot;&gt;&#x9;&lt;/span&gt;departure&lt;span style=&quot;white-space: pre; font-size: 15px;&quot;&gt;&#x9;&lt;/span&gt;_location&lt;span style=&quot;white-space: pre; font-size: 15px;&quot;&gt;&#x9;&lt;/span&gt;tinyint&lt;span style=&quot;white-space: pre; font-size: 15px;&quot;&gt;&#x9;&lt;/span&gt;" style="text;strokeColor=none;fillColor=none;align=left;verticalAlign=top;spacingLeft=4;spacingRight=4;overflow=hidden;rotatable=0;points=[[0,0.5],[1,0.5]];portConstraint=eastwest;whiteSpace=wrap;html=1;fontSize=15;" parent="hK4hUFkUPG_2YT95JGvy-0" vertex="1">
          <mxGeometry y="234" width="290" height="26" as="geometry" />
        </mxCell>
        <mxCell id="hK4hUFkUPG_2YT95JGvy-8" value="Fk&lt;span style=&quot;font-size: 15px;&quot;&gt;&lt;span style=&quot;white-space: pre; font-size: 15px;&quot;&gt;&amp;nbsp;&amp;nbsp;&amp;nbsp;&amp;nbsp;&lt;/span&gt;&lt;/span&gt;destination &lt;span style=&quot;font-size: 15px;&quot;&gt;&lt;span style=&quot;white-space: pre; font-size: 15px;&quot;&gt;&amp;nbsp;&amp;nbsp;&amp;nbsp;&amp;nbsp;&lt;/span&gt;&lt;span style=&quot;font-size: 15px;&quot;&gt;&lt;span style=&quot;white-space: pre; font-size: 15px;&quot;&gt;&amp;nbsp;&amp;nbsp;&amp;nbsp;&lt;span style=&quot;white-space: pre; font-size: 15px;&quot;&gt;&#x9;&lt;/span&gt;&amp;nbsp;&lt;/span&gt;&lt;/span&gt;&lt;/span&gt;tinyint" style="text;strokeColor=none;fillColor=none;align=left;verticalAlign=top;spacingLeft=4;spacingRight=4;overflow=hidden;rotatable=0;points=[[0,0.5],[1,0.5]];portConstraint=eastwest;whiteSpace=wrap;html=1;fontSize=15;" parent="hK4hUFkUPG_2YT95JGvy-0" vertex="1">
          <mxGeometry y="260" width="290" height="26" as="geometry" />
        </mxCell>
        <mxCell id="hK4hUFkUPG_2YT95JGvy-13" value="Users" style="swimlane;fontStyle=0;childLayout=stackLayout;horizontal=1;startSize=26;fillColor=none;horizontalStack=0;resizeParent=1;resizeParentMax=0;resizeLast=0;collapsible=1;marginBottom=0;whiteSpace=wrap;html=1;fontSize=15;" parent="WIyWlLk6GJQsqaUBKTNV-1" vertex="1">
          <mxGeometry x="950" y="620" width="270" height="182" as="geometry" />
        </mxCell>
        <mxCell id="hK4hUFkUPG_2YT95JGvy-14" value="Pk &lt;span style=&quot;white-space: pre; font-size: 15px;&quot;&gt;&#x9;&lt;/span&gt;id&lt;span style=&quot;white-space: pre; font-size: 15px;&quot;&gt;&#x9;&lt;/span&gt;&lt;span style=&quot;white-space: pre; font-size: 15px;&quot;&gt;&#x9;&lt;span style=&quot;white-space: pre; font-size: 15px;&quot;&gt;&#x9;&lt;span style=&quot;white-space: pre; font-size: 15px;&quot;&gt;&#x9;&lt;/span&gt;&lt;/span&gt;&lt;/span&gt;tinyInt&lt;span style=&quot;white-space: pre; font-size: 15px;&quot;&gt;&#x9;&lt;/span&gt;" style="text;strokeColor=none;fillColor=none;align=left;verticalAlign=top;spacingLeft=4;spacingRight=4;overflow=hidden;rotatable=0;points=[[0,0.5],[1,0.5]];portConstraint=eastwest;whiteSpace=wrap;html=1;fontSize=15;" parent="hK4hUFkUPG_2YT95JGvy-13" vertex="1">
          <mxGeometry y="26" width="270" height="26" as="geometry" />
        </mxCell>
        <mxCell id="hK4hUFkUPG_2YT95JGvy-15" value="&lt;span style=&quot;white-space: pre; font-size: 15px;&quot;&gt;&#x9;&lt;/span&gt;name&lt;span style=&quot;white-space: pre; font-size: 15px;&quot;&gt;&#x9;&lt;/span&gt;&lt;span style=&quot;white-space: pre; font-size: 15px;&quot;&gt;&#x9;&lt;span style=&quot;white-space: pre; font-size: 15px;&quot;&gt;&#x9;&lt;/span&gt;&lt;/span&gt;varchar(100)" style="text;strokeColor=none;fillColor=none;align=left;verticalAlign=top;spacingLeft=4;spacingRight=4;overflow=hidden;rotatable=0;points=[[0,0.5],[1,0.5]];portConstraint=eastwest;whiteSpace=wrap;html=1;fontSize=15;" parent="hK4hUFkUPG_2YT95JGvy-13" vertex="1">
          <mxGeometry y="52" width="270" height="26" as="geometry" />
        </mxCell>
        <mxCell id="hK4hUFkUPG_2YT95JGvy-16" value="&lt;span style=&quot;white-space: pre; font-size: 15px;&quot;&gt;&#x9;&lt;/span&gt;email&lt;span style=&quot;white-space: pre; font-size: 15px;&quot;&gt;&#x9;&lt;/span&gt;&lt;span style=&quot;white-space: pre; font-size: 15px;&quot;&gt;&#x9;&lt;/span&gt;&lt;span style=&quot;white-space: pre; font-size: 15px;&quot;&gt;&#x9;&lt;/span&gt;varchar(100)&lt;span style=&quot;white-space: pre; font-size: 15px;&quot;&gt;&#x9;&lt;/span&gt;&lt;span style=&quot;white-space: pre; font-size: 15px;&quot;&gt;&#x9;&lt;/span&gt;&lt;span style=&quot;white-space: pre; font-size: 15px;&quot;&gt;&#x9;&lt;/span&gt;&lt;span style=&quot;white-space: pre; font-size: 15px;&quot;&gt;&#x9;&lt;/span&gt;&lt;span style=&quot;white-space: pre; font-size: 15px;&quot;&gt;&#x9;&lt;/span&gt;&lt;br style=&quot;font-size: 15px;&quot;&gt;" style="text;strokeColor=none;fillColor=none;align=left;verticalAlign=top;spacingLeft=4;spacingRight=4;overflow=hidden;rotatable=0;points=[[0,0.5],[1,0.5]];portConstraint=eastwest;whiteSpace=wrap;html=1;fontSize=15;" parent="hK4hUFkUPG_2YT95JGvy-13" vertex="1">
          <mxGeometry y="78" width="270" height="26" as="geometry" />
        </mxCell>
        <mxCell id="hK4hUFkUPG_2YT95JGvy-17" value="&lt;span style=&quot;white-space: pre; font-size: 15px;&quot;&gt;&#x9;&lt;/span&gt;password&lt;span style=&quot;white-space: pre; font-size: 15px;&quot;&gt;&#x9;&lt;/span&gt;&lt;span style=&quot;white-space: pre; font-size: 15px;&quot;&gt;&#x9;&lt;span style=&quot;white-space: pre; font-size: 15px;&quot;&gt;&#x9;&lt;/span&gt;v&lt;/span&gt;archar(50)" style="text;strokeColor=none;fillColor=none;align=left;verticalAlign=top;spacingLeft=4;spacingRight=4;overflow=hidden;rotatable=0;points=[[0,0.5],[1,0.5]];portConstraint=eastwest;whiteSpace=wrap;html=1;fontSize=15;" parent="hK4hUFkUPG_2YT95JGvy-13" vertex="1">
          <mxGeometry y="104" width="270" height="26" as="geometry" />
        </mxCell>
        <mxCell id="hK4hUFkUPG_2YT95JGvy-18" value="&lt;span style=&quot;white-space: pre; font-size: 15px;&quot;&gt;&#x9;&lt;/span&gt;phone&lt;span style=&quot;white-space: pre; font-size: 15px;&quot;&gt;&#x9;&lt;/span&gt;&amp;nbsp;&lt;span style=&quot;white-space: pre; font-size: 15px;&quot;&gt;&#x9;&lt;span style=&quot;white-space: pre; font-size: 15px;&quot;&gt;&#x9;&lt;/span&gt;&lt;/span&gt;varchar(20)" style="text;strokeColor=none;fillColor=none;align=left;verticalAlign=top;spacingLeft=4;spacingRight=4;overflow=hidden;rotatable=0;points=[[0,0.5],[1,0.5]];portConstraint=eastwest;whiteSpace=wrap;html=1;fontSize=15;" parent="hK4hUFkUPG_2YT95JGvy-13" vertex="1">
          <mxGeometry y="130" width="270" height="26" as="geometry" />
        </mxCell>
        <mxCell id="hK4hUFkUPG_2YT95JGvy-19" value="&lt;span style=&quot;white-space: pre; font-size: 15px;&quot;&gt;&#x9;&lt;/span&gt;profile_picture_url&lt;span style=&quot;white-space: pre; font-size: 15px;&quot;&gt;&#x9;&lt;/span&gt;varchar(500)" style="text;strokeColor=none;fillColor=none;align=left;verticalAlign=top;spacingLeft=4;spacingRight=4;overflow=hidden;rotatable=0;points=[[0,0.5],[1,0.5]];portConstraint=eastwest;whiteSpace=wrap;html=1;fontSize=15;" parent="hK4hUFkUPG_2YT95JGvy-13" vertex="1">
          <mxGeometry y="156" width="270" height="26" as="geometry" />
        </mxCell>
        <mxCell id="hK4hUFkUPG_2YT95JGvy-23" value="Bookings" style="swimlane;fontStyle=0;childLayout=stackLayout;horizontal=1;startSize=26;fillColor=none;horizontalStack=0;resizeParent=1;resizeParentMax=0;resizeLast=0;collapsible=1;marginBottom=0;whiteSpace=wrap;html=1;fontSize=15;" parent="WIyWlLk6GJQsqaUBKTNV-1" vertex="1">
          <mxGeometry x="540" y="760" width="310" height="234" as="geometry" />
        </mxCell>
        <mxCell id="hK4hUFkUPG_2YT95JGvy-24" value="Pk &lt;span style=&quot;white-space: pre; font-size: 15px;&quot;&gt;&#x9;&lt;/span&gt;id&lt;span style=&quot;white-space: pre; font-size: 15px;&quot;&gt;&#x9;&lt;/span&gt;&lt;span style=&quot;white-space: pre; font-size: 15px;&quot;&gt;&#x9;&lt;span style=&quot;white-space: pre; font-size: 15px;&quot;&gt;&#x9;&lt;span style=&quot;white-space: pre; font-size: 15px;&quot;&gt;&#x9;&lt;span style=&quot;white-space: pre; font-size: 15px;&quot;&gt;&#x9;&lt;/span&gt;&lt;/span&gt;&lt;/span&gt;&lt;/span&gt;tinyInt&lt;span style=&quot;white-space: pre; font-size: 15px;&quot;&gt;&#x9;&lt;/span&gt;" style="text;strokeColor=none;fillColor=none;align=left;verticalAlign=top;spacingLeft=4;spacingRight=4;overflow=hidden;rotatable=0;points=[[0,0.5],[1,0.5]];portConstraint=eastwest;whiteSpace=wrap;html=1;fontSize=15;" parent="hK4hUFkUPG_2YT95JGvy-23" vertex="1">
          <mxGeometry y="26" width="310" height="26" as="geometry" />
        </mxCell>
        <mxCell id="hK4hUFkUPG_2YT95JGvy-25" value="&lt;span style=&quot;white-space: pre; font-size: 15px;&quot;&gt;&#x9;&lt;/span&gt;name&lt;span style=&quot;white-space: pre; font-size: 15px;&quot;&gt;&#x9;&lt;/span&gt;&lt;span style=&quot;white-space: pre; font-size: 15px;&quot;&gt;&#x9;&lt;span style=&quot;white-space: pre; font-size: 15px;&quot;&gt;&#x9;&lt;span style=&quot;white-space: pre; font-size: 15px;&quot;&gt;&#x9;&lt;/span&gt;&lt;/span&gt;&lt;/span&gt;varchar(100)" style="text;strokeColor=none;fillColor=none;align=left;verticalAlign=top;spacingLeft=4;spacingRight=4;overflow=hidden;rotatable=0;points=[[0,0.5],[1,0.5]];portConstraint=eastwest;whiteSpace=wrap;html=1;fontSize=15;" parent="hK4hUFkUPG_2YT95JGvy-23" vertex="1">
          <mxGeometry y="52" width="310" height="26" as="geometry" />
        </mxCell>
        <mxCell id="hK4hUFkUPG_2YT95JGvy-26" value="&lt;span style=&quot;white-space: pre; font-size: 15px;&quot;&gt;&#x9;&lt;/span&gt;booking_date&amp;nbsp;&amp;nbsp;&lt;span style=&quot;font-size: 15px;&quot;&gt;&lt;span style=&quot;white-space: pre; font-size: 15px;&quot;&gt;&amp;nbsp;&amp;nbsp;&amp;nbsp;&amp;nbsp;&lt;span style=&quot;white-space: pre; font-size: 15px;&quot;&gt;&#x9;&lt;span style=&quot;white-space: pre; font-size: 15px;&quot;&gt;&#x9;&lt;/span&gt;&lt;/span&gt;datetime&lt;/span&gt;&lt;/span&gt;" style="text;strokeColor=none;fillColor=none;align=left;verticalAlign=top;spacingLeft=4;spacingRight=4;overflow=hidden;rotatable=0;points=[[0,0.5],[1,0.5]];portConstraint=eastwest;whiteSpace=wrap;html=1;fontSize=15;" parent="hK4hUFkUPG_2YT95JGvy-23" vertex="1">
          <mxGeometry y="78" width="310" height="26" as="geometry" />
        </mxCell>
        <mxCell id="hK4hUFkUPG_2YT95JGvy-27" value="&lt;span style=&quot;white-space: pre; font-size: 15px;&quot;&gt;&#x9;&lt;/span&gt;num_of_participants&lt;span style=&quot;white-space: pre; font-size: 15px;&quot;&gt;&#x9;&lt;/span&gt;tinyint" style="text;strokeColor=none;fillColor=none;align=left;verticalAlign=top;spacingLeft=4;spacingRight=4;overflow=hidden;rotatable=0;points=[[0,0.5],[1,0.5]];portConstraint=eastwest;whiteSpace=wrap;html=1;fontSize=15;" parent="hK4hUFkUPG_2YT95JGvy-23" vertex="1">
          <mxGeometry y="104" width="310" height="26" as="geometry" />
        </mxCell>
        <mxCell id="hK4hUFkUPG_2YT95JGvy-28" value="&lt;span style=&quot;white-space: pre; font-size: 15px;&quot;&gt;&lt;span style=&quot;white-space: pre; font-size: 15px;&quot;&gt;&#x9;&lt;/span&gt;&lt;/span&gt;total&amp;nbsp;&lt;span style=&quot;white-space: pre; font-size: 15px;&quot;&gt;&#x9;&lt;span style=&quot;white-space: pre; font-size: 15px;&quot;&gt;&#x9;&lt;span style=&quot;white-space: pre; font-size: 15px;&quot;&gt;&#x9;&lt;/span&gt;&lt;span style=&quot;white-space: pre; font-size: 15px;&quot;&gt;&#x9;&lt;/span&gt;i&lt;/span&gt;n&lt;/span&gt;t" style="text;strokeColor=none;fillColor=none;align=left;verticalAlign=top;spacingLeft=4;spacingRight=4;overflow=hidden;rotatable=0;points=[[0,0.5],[1,0.5]];portConstraint=eastwest;whiteSpace=wrap;html=1;fontSize=15;" parent="hK4hUFkUPG_2YT95JGvy-23" vertex="1">
          <mxGeometry y="130" width="310" height="26" as="geometry" />
        </mxCell>
        <mxCell id="hK4hUFkUPG_2YT95JGvy-29" value="&lt;span style=&quot;white-space: pre; font-size: 15px;&quot;&gt;&#x9;&lt;/span&gt;status&lt;span style=&quot;white-space: pre; font-size: 15px;&quot;&gt;&#x9;&lt;/span&gt;&lt;span style=&quot;white-space: pre; font-size: 15px;&quot;&gt;&#x9;&lt;/span&gt;&lt;span style=&quot;white-space: pre; font-size: 15px;&quot;&gt;&#x9;&lt;/span&gt;&lt;span style=&quot;white-space: pre; font-size: 15px;&quot;&gt;&#x9;&lt;/span&gt;varchar(20)" style="text;strokeColor=none;fillColor=none;align=left;verticalAlign=top;spacingLeft=4;spacingRight=4;overflow=hidden;rotatable=0;points=[[0,0.5],[1,0.5]];portConstraint=eastwest;whiteSpace=wrap;html=1;fontSize=15;" parent="hK4hUFkUPG_2YT95JGvy-23" vertex="1">
          <mxGeometry y="156" width="310" height="26" as="geometry" />
        </mxCell>
        <mxCell id="hK4hUFkUPG_2YT95JGvy-34" value="Fk&lt;span style=&quot;font-size: 15px;&quot;&gt;&lt;span style=&quot;white-space: pre; font-size: 15px;&quot;&gt;&amp;nbsp;&amp;nbsp;&amp;nbsp;&amp;nbsp;&lt;/span&gt;&lt;/span&gt;user_id&lt;span style=&quot;font-size: 15px;&quot;&gt;&lt;span style=&quot;white-space: pre; font-size: 15px;&quot;&gt;&amp;nbsp;&amp;nbsp;&amp;nbsp;&amp;nbsp;&lt;/span&gt;&lt;/span&gt;&lt;span style=&quot;font-size: 15px;&quot;&gt;&lt;span style=&quot;white-space: pre; font-size: 15px;&quot;&gt;&amp;nbsp;&amp;nbsp;&amp;nbsp;&amp;nbsp;&lt;/span&gt;&lt;span style=&quot;font-size: 15px;&quot;&gt;&lt;span style=&quot;white-space: pre; font-size: 15px;&quot;&gt;&amp;nbsp;&amp;nbsp;&amp;nbsp;&amp;nbsp;&lt;span style=&quot;white-space: pre; font-size: 15px;&quot;&gt;&#x9;&lt;span style=&quot;white-space: pre; font-size: 15px;&quot;&gt;&#x9;&lt;/span&gt;&lt;/span&gt;&lt;/span&gt;&lt;/span&gt;t&lt;/span&gt;inyInt" style="text;strokeColor=none;fillColor=none;align=left;verticalAlign=top;spacingLeft=4;spacingRight=4;overflow=hidden;rotatable=0;points=[[0,0.5],[1,0.5]];portConstraint=eastwest;whiteSpace=wrap;html=1;fontSize=15;" parent="hK4hUFkUPG_2YT95JGvy-23" vertex="1">
          <mxGeometry y="182" width="310" height="26" as="geometry" />
        </mxCell>
        <mxCell id="hK4hUFkUPG_2YT95JGvy-35" value="Fk&lt;span style=&quot;font-size: 15px;&quot;&gt;&lt;span style=&quot;white-space: pre; font-size: 15px;&quot;&gt;&amp;nbsp;&amp;nbsp;&amp;nbsp;&amp;nbsp;&lt;/span&gt;&lt;/span&gt;tour_id&lt;span style=&quot;white-space: pre; font-size: 15px;&quot;&gt;&#x9;&lt;/span&gt;&lt;span style=&quot;font-size: 15px;&quot;&gt;&lt;span style=&quot;white-space: pre; font-size: 15px;&quot;&gt;&amp;nbsp;&amp;nbsp;&amp;nbsp;&amp;nbsp;&lt;/span&gt;&lt;/span&gt;&lt;span style=&quot;font-size: 15px;&quot;&gt;&lt;span style=&quot;white-space: pre; font-size: 15px;&quot;&gt;&amp;nbsp;&amp;nbsp;&amp;nbsp;&amp;nbsp;&lt;/span&gt;&lt;span style=&quot;font-size: 15px;&quot;&gt;&lt;span style=&quot;white-space: pre; font-size: 15px;&quot;&gt;&amp;nbsp;&amp;nbsp;&amp;nbsp;&amp;nbsp;&lt;span style=&quot;white-space: pre; font-size: 15px;&quot;&gt;&#x9;&lt;span style=&quot;white-space: pre; font-size: 15px;&quot;&gt;&#x9;&lt;/span&gt;&lt;/span&gt;&lt;/span&gt;&lt;/span&gt;t&lt;/span&gt;inyInt" style="text;strokeColor=none;fillColor=none;align=left;verticalAlign=top;spacingLeft=4;spacingRight=4;overflow=hidden;rotatable=0;points=[[0,0.5],[1,0.5]];portConstraint=eastwest;whiteSpace=wrap;html=1;fontSize=15;" parent="hK4hUFkUPG_2YT95JGvy-23" vertex="1">
          <mxGeometry y="208" width="310" height="26" as="geometry" />
        </mxCell>
        <mxCell id="4q8H9GobpHbrrhZok623-20" style="edgeStyle=orthogonalEdgeStyle;rounded=0;orthogonalLoop=1;jettySize=auto;html=1;exitX=0.5;exitY=0;exitDx=0;exitDy=0;fontSize=15;" parent="WIyWlLk6GJQsqaUBKTNV-1" source="hK4hUFkUPG_2YT95JGvy-36" edge="1">
          <mxGeometry relative="1" as="geometry">
            <mxPoint x="20" y="1010" as="targetPoint" />
          </mxGeometry>
        </mxCell>
        <mxCell id="4q8H9GobpHbrrhZok623-26" value="&lt;font style=&quot;font-size: 15px;&quot;&gt;1&lt;/font&gt;" style="edgeLabel;html=1;align=center;verticalAlign=middle;resizable=0;points=[];fontSize=15;" parent="4q8H9GobpHbrrhZok623-20" vertex="1" connectable="0">
          <mxGeometry x="-0.7406" relative="1" as="geometry">
            <mxPoint as="offset" />
          </mxGeometry>
        </mxCell>
        <mxCell id="4q8H9GobpHbrrhZok623-27" value="&lt;font style=&quot;font-size: 15px;&quot;&gt;many&lt;/font&gt;" style="edgeLabel;html=1;align=center;verticalAlign=middle;resizable=0;points=[];fontSize=15;" parent="4q8H9GobpHbrrhZok623-20" vertex="1" connectable="0">
          <mxGeometry x="0.7317" relative="1" as="geometry">
            <mxPoint as="offset" />
          </mxGeometry>
        </mxCell>
        <mxCell id="hK4hUFkUPG_2YT95JGvy-36" value="Categoríes" style="swimlane;fontStyle=0;childLayout=stackLayout;horizontal=1;startSize=26;fillColor=none;horizontalStack=0;resizeParent=1;resizeParentMax=0;resizeLast=0;collapsible=1;marginBottom=0;whiteSpace=wrap;html=1;fontSize=15;" parent="WIyWlLk6GJQsqaUBKTNV-1" vertex="1">
          <mxGeometry x="-100" y="1150" width="200" height="78" as="geometry" />
        </mxCell>
        <mxCell id="hK4hUFkUPG_2YT95JGvy-37" value="Pk &lt;span style=&quot;white-space: pre; font-size: 15px;&quot;&gt;&#x9;&lt;/span&gt;id&lt;span style=&quot;white-space: pre; font-size: 15px;&quot;&gt;&#x9;&lt;span style=&quot;white-space: pre;&quot;&gt;&#x9;&lt;/span&gt;&lt;/span&gt;tinyInt&lt;span style=&quot;white-space: pre; font-size: 15px;&quot;&gt;&#x9;&lt;/span&gt;" style="text;strokeColor=none;fillColor=none;align=left;verticalAlign=top;spacingLeft=4;spacingRight=4;overflow=hidden;rotatable=0;points=[[0,0.5],[1,0.5]];portConstraint=eastwest;whiteSpace=wrap;html=1;fontSize=15;" parent="hK4hUFkUPG_2YT95JGvy-36" vertex="1">
          <mxGeometry y="26" width="200" height="26" as="geometry" />
        </mxCell>
        <mxCell id="hK4hUFkUPG_2YT95JGvy-38" value="&lt;span style=&quot;white-space: pre; font-size: 15px;&quot;&gt;&#x9;&lt;/span&gt;name&lt;span style=&quot;white-space: pre; font-size: 15px;&quot;&gt;&#x9;&lt;/span&gt;varchar(100)" style="text;strokeColor=none;fillColor=none;align=left;verticalAlign=top;spacingLeft=4;spacingRight=4;overflow=hidden;rotatable=0;points=[[0,0.5],[1,0.5]];portConstraint=eastwest;whiteSpace=wrap;html=1;fontSize=15;" parent="hK4hUFkUPG_2YT95JGvy-36" vertex="1">
          <mxGeometry y="52" width="200" height="26" as="geometry" />
        </mxCell>
        <mxCell id="hK4hUFkUPG_2YT95JGvy-45" value="locations" style="swimlane;fontStyle=0;childLayout=stackLayout;horizontal=1;startSize=26;fillColor=none;horizontalStack=0;resizeParent=1;resizeParentMax=0;resizeLast=0;collapsible=1;marginBottom=0;whiteSpace=wrap;html=1;fontSize=15;" parent="WIyWlLk6GJQsqaUBKTNV-1" vertex="1">
          <mxGeometry x="670" y="130" width="250" height="156" as="geometry" />
        </mxCell>
        <mxCell id="hK4hUFkUPG_2YT95JGvy-46" value="Pk &lt;span style=&quot;white-space: pre; font-size: 15px;&quot;&gt;&#x9;&lt;/span&gt;id&lt;span style=&quot;white-space: pre; font-size: 15px;&quot;&gt;&#x9;&lt;/span&gt;&lt;span style=&quot;white-space: pre; font-size: 15px;&quot;&gt;&#x9;&lt;span style=&quot;white-space: pre; font-size: 15px;&quot;&gt;&#x9;&lt;span style=&quot;white-space: pre; font-size: 15px;&quot;&gt;&#x9;&lt;/span&gt;&lt;/span&gt;&lt;/span&gt;tinyInt&lt;span style=&quot;white-space: pre; font-size: 15px;&quot;&gt;&#x9;&lt;/span&gt;" style="text;strokeColor=none;fillColor=none;align=left;verticalAlign=top;spacingLeft=4;spacingRight=4;overflow=hidden;rotatable=0;points=[[0,0.5],[1,0.5]];portConstraint=eastwest;whiteSpace=wrap;html=1;fontSize=15;" parent="hK4hUFkUPG_2YT95JGvy-45" vertex="1">
          <mxGeometry y="26" width="250" height="26" as="geometry" />
        </mxCell>
        <mxCell id="hK4hUFkUPG_2YT95JGvy-47" value="&lt;span style=&quot;white-space: pre; font-size: 15px;&quot;&gt;&#x9;&lt;/span&gt;name&lt;span style=&quot;white-space: pre; font-size: 15px;&quot;&gt;&#x9;&lt;/span&gt;&lt;span style=&quot;white-space: pre; font-size: 15px;&quot;&gt;&#x9;&lt;span style=&quot;white-space: pre; font-size: 15px;&quot;&gt;&#x9;&lt;/span&gt;&lt;/span&gt;varchar(100)" style="text;strokeColor=none;fillColor=none;align=left;verticalAlign=top;spacingLeft=4;spacingRight=4;overflow=hidden;rotatable=0;points=[[0,0.5],[1,0.5]];portConstraint=eastwest;whiteSpace=wrap;html=1;fontSize=15;" parent="hK4hUFkUPG_2YT95JGvy-45" vertex="1">
          <mxGeometry y="52" width="250" height="26" as="geometry" />
        </mxCell>
        <mxCell id="4q8H9GobpHbrrhZok623-1" value="&lt;span style=&quot;white-space: pre; font-size: 15px;&quot;&gt;&#x9;&lt;/span&gt;country&lt;span style=&quot;white-space: pre; font-size: 15px;&quot;&gt;&#x9;&lt;/span&gt;&lt;span style=&quot;white-space: pre; font-size: 15px;&quot;&gt;&#x9;&lt;span style=&quot;white-space: pre; font-size: 15px;&quot;&gt;&#x9;&lt;/span&gt;&lt;/span&gt;varchar(100)" style="text;strokeColor=none;fillColor=none;align=left;verticalAlign=top;spacingLeft=4;spacingRight=4;overflow=hidden;rotatable=0;points=[[0,0.5],[1,0.5]];portConstraint=eastwest;whiteSpace=wrap;html=1;fontSize=15;" parent="hK4hUFkUPG_2YT95JGvy-45" vertex="1">
          <mxGeometry y="78" width="250" height="26" as="geometry" />
        </mxCell>
        <mxCell id="hK4hUFkUPG_2YT95JGvy-49" value="&lt;span style=&quot;white-space: pre; font-size: 15px;&quot;&gt;&#x9;&lt;/span&gt;description&amp;nbsp;&amp;nbsp;&lt;span style=&quot;font-size: 15px;&quot;&gt;&lt;span style=&quot;white-space: pre; font-size: 15px;&quot;&gt;&amp;nbsp;&amp;nbsp;&amp;nbsp;&amp;nbsp;&lt;span style=&quot;white-space: pre; font-size: 15px;&quot;&gt;&#x9;&lt;/span&gt;&lt;span style=&quot;white-space: pre; font-size: 15px;&quot;&gt;&#x9;&lt;/span&gt;&lt;/span&gt;&lt;/span&gt;varchar(1000)&lt;span style=&quot;white-space: pre; font-size: 15px;&quot;&gt;&#x9;&lt;/span&gt;&lt;span style=&quot;white-space: pre; font-size: 15px;&quot;&gt;&#x9;&lt;/span&gt;&lt;span style=&quot;white-space: pre; font-size: 15px;&quot;&gt;&#x9;&lt;/span&gt;&lt;span style=&quot;white-space: pre; font-size: 15px;&quot;&gt;&#x9;&lt;/span&gt;&lt;span style=&quot;white-space: pre; font-size: 15px;&quot;&gt;&#x9;&lt;/span&gt;&lt;br style=&quot;font-size: 15px;&quot;&gt;&lt;br style=&quot;font-size: 15px;&quot;&gt;" style="text;strokeColor=none;fillColor=none;align=left;verticalAlign=top;spacingLeft=4;spacingRight=4;overflow=hidden;rotatable=0;points=[[0,0.5],[1,0.5]];portConstraint=eastwest;whiteSpace=wrap;html=1;fontSize=15;" parent="hK4hUFkUPG_2YT95JGvy-45" vertex="1">
          <mxGeometry y="104" width="250" height="26" as="geometry" />
        </mxCell>
        <mxCell id="hK4hUFkUPG_2YT95JGvy-51" value="&lt;span style=&quot;font-size: 15px;&quot;&gt;&lt;span style=&quot;white-space: pre; font-size: 15px;&quot;&gt;&lt;span style=&quot;white-space: pre; font-size: 15px;&quot;&gt;&#x9;&lt;/span&gt;&lt;/span&gt;&lt;/span&gt;image_url&lt;span style=&quot;white-space: pre; font-size: 15px;&quot;&gt;&#x9;&lt;span style=&quot;white-space: pre; font-size: 15px;&quot;&gt;&#x9;&lt;/span&gt;v&lt;/span&gt;archar(500)" style="text;strokeColor=none;fillColor=none;align=left;verticalAlign=top;spacingLeft=4;spacingRight=4;overflow=hidden;rotatable=0;points=[[0,0.5],[1,0.5]];portConstraint=eastwest;whiteSpace=wrap;html=1;fontSize=15;" parent="hK4hUFkUPG_2YT95JGvy-45" vertex="1">
          <mxGeometry y="130" width="250" height="26" as="geometry" />
        </mxCell>
        <mxCell id="hK4hUFkUPG_2YT95JGvy-52" value="Reviews" style="swimlane;fontStyle=0;childLayout=stackLayout;horizontal=1;startSize=26;fillColor=none;horizontalStack=0;resizeParent=1;resizeParentMax=0;resizeLast=0;collapsible=1;marginBottom=0;whiteSpace=wrap;html=1;fontSize=15;" parent="WIyWlLk6GJQsqaUBKTNV-1" vertex="1">
          <mxGeometry x="540" y="1036" width="300" height="182" as="geometry" />
        </mxCell>
        <mxCell id="hK4hUFkUPG_2YT95JGvy-53" value="Pk &lt;span style=&quot;white-space: pre; font-size: 15px;&quot;&gt;&#x9;&lt;/span&gt;id&lt;span style=&quot;white-space: pre; font-size: 15px;&quot;&gt;&#x9;&lt;/span&gt;&lt;span style=&quot;white-space: pre; font-size: 15px;&quot;&gt;&#x9;&lt;span style=&quot;white-space: pre; font-size: 15px;&quot;&gt;&#x9;&lt;span style=&quot;white-space: pre; font-size: 15px;&quot;&gt;&#x9;&lt;span style=&quot;white-space: pre; font-size: 15px;&quot;&gt;&#x9;&lt;/span&gt;&lt;/span&gt;&lt;/span&gt;&lt;/span&gt;tinyInt&lt;span style=&quot;white-space: pre; font-size: 15px;&quot;&gt;&#x9;&lt;/span&gt;" style="text;strokeColor=none;fillColor=none;align=left;verticalAlign=top;spacingLeft=4;spacingRight=4;overflow=hidden;rotatable=0;points=[[0,0.5],[1,0.5]];portConstraint=eastwest;whiteSpace=wrap;html=1;fontSize=15;" parent="hK4hUFkUPG_2YT95JGvy-52" vertex="1">
          <mxGeometry y="26" width="300" height="26" as="geometry" />
        </mxCell>
        <mxCell id="hK4hUFkUPG_2YT95JGvy-56" value="&lt;span style=&quot;white-space: pre; font-size: 15px;&quot;&gt;&#x9;&lt;/span&gt;comment&lt;span style=&quot;white-space: pre; font-size: 15px;&quot;&gt;&#x9;&lt;/span&gt;&lt;span style=&quot;white-space: pre; font-size: 15px;&quot;&gt;&#x9;&lt;/span&gt;&lt;span style=&quot;white-space: pre; font-size: 15px;&quot;&gt;&#x9;&lt;/span&gt;&lt;span style=&quot;white-space: pre; font-size: 15px;&quot;&gt;&#x9;&lt;/span&gt;varchar(2000)&lt;span style=&quot;white-space: pre; font-size: 15px;&quot;&gt;&#x9;&lt;/span&gt;" style="text;strokeColor=none;fillColor=none;align=left;verticalAlign=top;spacingLeft=4;spacingRight=4;overflow=hidden;rotatable=0;points=[[0,0.5],[1,0.5]];portConstraint=eastwest;whiteSpace=wrap;html=1;fontSize=15;" parent="hK4hUFkUPG_2YT95JGvy-52" vertex="1">
          <mxGeometry y="52" width="300" height="26" as="geometry" />
        </mxCell>
        <mxCell id="hK4hUFkUPG_2YT95JGvy-57" value="&lt;span style=&quot;white-space: pre; font-size: 15px;&quot;&gt;&lt;span style=&quot;white-space: pre; font-size: 15px;&quot;&gt;&#x9;&lt;/span&gt;&lt;/span&gt;rating&amp;nbsp;&lt;span style=&quot;white-space: pre; font-size: 15px;&quot;&gt;&#x9;&lt;span style=&quot;white-space: pre; font-size: 15px;&quot;&gt;&#x9;&lt;span style=&quot;white-space: pre; font-size: 15px;&quot;&gt;&#x9;&lt;/span&gt;&lt;span style=&quot;white-space: pre; font-size: 15px;&quot;&gt;&#x9;&lt;/span&gt;t&lt;/span&gt;i&lt;/span&gt;nyint" style="text;strokeColor=none;fillColor=none;align=left;verticalAlign=top;spacingLeft=4;spacingRight=4;overflow=hidden;rotatable=0;points=[[0,0.5],[1,0.5]];portConstraint=eastwest;whiteSpace=wrap;html=1;fontSize=15;" parent="hK4hUFkUPG_2YT95JGvy-52" vertex="1">
          <mxGeometry y="78" width="300" height="26" as="geometry" />
        </mxCell>
        <mxCell id="hK4hUFkUPG_2YT95JGvy-55" value="&lt;span style=&quot;white-space: pre; font-size: 15px;&quot;&gt;&#x9;&lt;/span&gt;review_date&amp;nbsp;&amp;nbsp;&lt;span style=&quot;font-size: 15px;&quot;&gt;&lt;span style=&quot;white-space: pre; font-size: 15px;&quot;&gt;&amp;nbsp;&amp;nbsp;&amp;nbsp;&amp;nbsp;&lt;span style=&quot;white-space: pre; font-size: 15px;&quot;&gt;&#x9;&lt;span style=&quot;white-space: pre; font-size: 15px;&quot;&gt;&#x9;&lt;/span&gt;&lt;/span&gt;datetime&lt;/span&gt;&lt;/span&gt;" style="text;strokeColor=none;fillColor=none;align=left;verticalAlign=top;spacingLeft=4;spacingRight=4;overflow=hidden;rotatable=0;points=[[0,0.5],[1,0.5]];portConstraint=eastwest;whiteSpace=wrap;html=1;fontSize=15;" parent="hK4hUFkUPG_2YT95JGvy-52" vertex="1">
          <mxGeometry y="104" width="300" height="26" as="geometry" />
        </mxCell>
        <mxCell id="hK4hUFkUPG_2YT95JGvy-59" value="Fk&lt;span style=&quot;font-size: 15px;&quot;&gt;&lt;span style=&quot;white-space: pre; font-size: 15px;&quot;&gt;&amp;nbsp;&amp;nbsp;&amp;nbsp;&amp;nbsp;&lt;/span&gt;&lt;/span&gt;user_id&lt;span style=&quot;font-size: 15px;&quot;&gt;&lt;span style=&quot;white-space: pre; font-size: 15px;&quot;&gt;&amp;nbsp;&amp;nbsp;&amp;nbsp;&amp;nbsp;&lt;/span&gt;&lt;/span&gt;&lt;span style=&quot;font-size: 15px;&quot;&gt;&lt;span style=&quot;white-space: pre; font-size: 15px;&quot;&gt;&amp;nbsp;&amp;nbsp;&amp;nbsp;&amp;nbsp;&lt;/span&gt;&lt;span style=&quot;font-size: 15px;&quot;&gt;&lt;span style=&quot;white-space: pre; font-size: 15px;&quot;&gt;&amp;nbsp;&amp;nbsp;&amp;nbsp;&amp;nbsp;&lt;span style=&quot;white-space: pre; font-size: 15px;&quot;&gt;&#x9;&lt;span style=&quot;white-space: pre; font-size: 15px;&quot;&gt;&#x9;&lt;/span&gt;&lt;/span&gt;&lt;/span&gt;&lt;/span&gt;t&lt;/span&gt;inyInt" style="text;strokeColor=none;fillColor=none;align=left;verticalAlign=top;spacingLeft=4;spacingRight=4;overflow=hidden;rotatable=0;points=[[0,0.5],[1,0.5]];portConstraint=eastwest;whiteSpace=wrap;html=1;fontSize=15;" parent="hK4hUFkUPG_2YT95JGvy-52" vertex="1">
          <mxGeometry y="130" width="300" height="26" as="geometry" />
        </mxCell>
        <mxCell id="hK4hUFkUPG_2YT95JGvy-60" value="Fk&lt;span style=&quot;font-size: 15px;&quot;&gt;&lt;span style=&quot;white-space: pre; font-size: 15px;&quot;&gt;&amp;nbsp;&amp;nbsp;&amp;nbsp;&amp;nbsp;&lt;/span&gt;&lt;/span&gt;tour_id&lt;span style=&quot;white-space: pre; font-size: 15px;&quot;&gt;&#x9;&lt;/span&gt;&lt;span style=&quot;font-size: 15px;&quot;&gt;&lt;span style=&quot;white-space: pre; font-size: 15px;&quot;&gt;&amp;nbsp;&amp;nbsp;&amp;nbsp;&amp;nbsp;&lt;/span&gt;&lt;/span&gt;&lt;span style=&quot;font-size: 15px;&quot;&gt;&lt;span style=&quot;white-space: pre; font-size: 15px;&quot;&gt;&amp;nbsp;&amp;nbsp;&amp;nbsp;&amp;nbsp;&lt;/span&gt;&lt;span style=&quot;font-size: 15px;&quot;&gt;&lt;span style=&quot;white-space: pre; font-size: 15px;&quot;&gt;&amp;nbsp;&amp;nbsp;&amp;nbsp;&amp;nbsp;&lt;span style=&quot;white-space: pre; font-size: 15px;&quot;&gt;&#x9;&lt;span style=&quot;white-space: pre; font-size: 15px;&quot;&gt;&#x9;&lt;/span&gt;&lt;/span&gt;&lt;/span&gt;&lt;/span&gt;t&lt;/span&gt;inyInt" style="text;strokeColor=none;fillColor=none;align=left;verticalAlign=top;spacingLeft=4;spacingRight=4;overflow=hidden;rotatable=0;points=[[0,0.5],[1,0.5]];portConstraint=eastwest;whiteSpace=wrap;html=1;fontSize=15;" parent="hK4hUFkUPG_2YT95JGvy-52" vertex="1">
          <mxGeometry y="156" width="300" height="26" as="geometry" />
        </mxCell>
        <mxCell id="4q8H9GobpHbrrhZok623-4" style="edgeStyle=orthogonalEdgeStyle;rounded=0;orthogonalLoop=1;jettySize=auto;html=1;entryX=0.678;entryY=-0.022;entryDx=0;entryDy=0;entryPerimeter=0;fontSize=15;" parent="WIyWlLk6GJQsqaUBKTNV-1" source="hK4hUFkUPG_2YT95JGvy-16" target="hK4hUFkUPG_2YT95JGvy-23" edge="1">
          <mxGeometry relative="1" as="geometry" />
        </mxCell>
        <mxCell id="4q8H9GobpHbrrhZok623-5" value="&lt;font style=&quot;font-size: 15px;&quot;&gt;1&lt;/font&gt;" style="edgeLabel;html=1;align=center;verticalAlign=middle;resizable=0;points=[];fontSize=15;" parent="4q8H9GobpHbrrhZok623-4" vertex="1" connectable="0">
          <mxGeometry x="-0.8248" y="-3" relative="1" as="geometry">
            <mxPoint as="offset" />
          </mxGeometry>
        </mxCell>
        <mxCell id="4q8H9GobpHbrrhZok623-6" value="&lt;font style=&quot;font-size: 15px;&quot;&gt;many&lt;/font&gt;" style="edgeLabel;html=1;align=center;verticalAlign=middle;resizable=0;points=[];fontSize=15;" parent="4q8H9GobpHbrrhZok623-4" vertex="1" connectable="0">
          <mxGeometry x="0.8789" y="1" relative="1" as="geometry">
            <mxPoint as="offset" />
          </mxGeometry>
        </mxCell>
        <mxCell id="4q8H9GobpHbrrhZok623-7" style="edgeStyle=orthogonalEdgeStyle;rounded=0;orthogonalLoop=1;jettySize=auto;html=1;exitX=0.306;exitY=1.031;exitDx=0;exitDy=0;exitPerimeter=0;entryX=-0.014;entryY=0.15;entryDx=0;entryDy=0;entryPerimeter=0;fontSize=15;" parent="WIyWlLk6GJQsqaUBKTNV-1" source="hK4hUFkUPG_2YT95JGvy-8" target="hK4hUFkUPG_2YT95JGvy-55" edge="1">
          <mxGeometry relative="1" as="geometry">
            <mxPoint x="210" y="893" as="sourcePoint" />
            <mxPoint x="440" y="1160" as="targetPoint" />
          </mxGeometry>
        </mxCell>
        <mxCell id="4q8H9GobpHbrrhZok623-8" value="&lt;font style=&quot;font-size: 15px;&quot;&gt;1&lt;/font&gt;" style="edgeLabel;html=1;align=center;verticalAlign=middle;resizable=0;points=[];fontSize=15;" parent="4q8H9GobpHbrrhZok623-7" vertex="1" connectable="0">
          <mxGeometry x="-0.8048" y="1" relative="1" as="geometry">
            <mxPoint as="offset" />
          </mxGeometry>
        </mxCell>
        <mxCell id="4q8H9GobpHbrrhZok623-13" value="&lt;font style=&quot;font-size: 15px;&quot;&gt;many&lt;/font&gt;" style="edgeLabel;html=1;align=center;verticalAlign=middle;resizable=0;points=[];fontSize=15;" parent="4q8H9GobpHbrrhZok623-7" vertex="1" connectable="0">
          <mxGeometry x="0.8209" y="3" relative="1" as="geometry">
            <mxPoint as="offset" />
          </mxGeometry>
        </mxCell>
        <mxCell id="4q8H9GobpHbrrhZok623-16" value="Categoríes_Tours" style="swimlane;fontStyle=0;childLayout=stackLayout;horizontal=1;startSize=26;fillColor=none;horizontalStack=0;resizeParent=1;resizeParentMax=0;resizeLast=0;collapsible=1;marginBottom=0;whiteSpace=wrap;html=1;fontSize=15;" parent="WIyWlLk6GJQsqaUBKTNV-1" vertex="1">
          <mxGeometry x="-120" y="930" width="250" height="78" as="geometry" />
        </mxCell>
        <mxCell id="4q8H9GobpHbrrhZok623-17" value="Pk &lt;span style=&quot;white-space: pre; font-size: 15px;&quot;&gt;&#x9;&lt;/span&gt;id_category&lt;span style=&quot;white-space: pre; font-size: 15px;&quot;&gt;&#x9;&lt;/span&gt;&lt;span style=&quot;white-space: pre; font-size: 15px;&quot;&gt;&#x9;&lt;span style=&quot;white-space: pre; font-size: 15px;&quot;&gt;&#x9;&lt;/span&gt;&lt;/span&gt;tinyInt&lt;span style=&quot;white-space: pre; font-size: 15px;&quot;&gt;&#x9;&lt;/span&gt;" style="text;strokeColor=none;fillColor=none;align=left;verticalAlign=top;spacingLeft=4;spacingRight=4;overflow=hidden;rotatable=0;points=[[0,0.5],[1,0.5]];portConstraint=eastwest;whiteSpace=wrap;html=1;fontSize=15;" parent="4q8H9GobpHbrrhZok623-16" vertex="1">
          <mxGeometry y="26" width="250" height="26" as="geometry" />
        </mxCell>
        <mxCell id="4q8H9GobpHbrrhZok623-18" value="Pk&lt;span style=&quot;font-size: 15px;&quot;&gt;&lt;span style=&quot;white-space: pre; font-size: 15px;&quot;&gt;&amp;nbsp;&amp;nbsp;&amp;nbsp;&amp;nbsp;&lt;/span&gt;&lt;/span&gt;id_tour&lt;span style=&quot;font-size: 15px;&quot;&gt;&lt;span style=&quot;white-space: pre; font-size: 15px;&quot;&gt;&amp;nbsp;&amp;nbsp;&amp;nbsp;&amp;nbsp;&lt;/span&gt;&lt;/span&gt;&lt;span style=&quot;font-size: 15px;&quot;&gt;&lt;span style=&quot;white-space: pre; font-size: 15px;&quot;&gt;&amp;nbsp;&amp;nbsp;&amp;nbsp;&amp;nbsp;&lt;/span&gt;&lt;span style=&quot;font-size: 15px;&quot;&gt;&lt;span style=&quot;white-space: pre; font-size: 15px;&quot;&gt;&amp;nbsp;&amp;nbsp;&amp;nbsp;&amp;nbsp;&lt;/span&gt;&lt;span style=&quot;font-size: 15px;&quot;&gt;&lt;span style=&quot;white-space: pre; font-size: 15px;&quot;&gt;&amp;nbsp;&amp;nbsp;&amp;nbsp;&amp;nbsp;&lt;span style=&quot;white-space: pre; font-size: 15px;&quot;&gt;&#x9;&lt;/span&gt;&lt;span style=&quot;white-space: pre; font-size: 15px;&quot;&gt;&#x9;&lt;/span&gt;&lt;/span&gt;&lt;/span&gt;&lt;/span&gt;&lt;/span&gt;tinyInt" style="text;strokeColor=none;fillColor=none;align=left;verticalAlign=top;spacingLeft=4;spacingRight=4;overflow=hidden;rotatable=0;points=[[0,0.5],[1,0.5]];portConstraint=eastwest;whiteSpace=wrap;html=1;fontSize=15;" parent="4q8H9GobpHbrrhZok623-16" vertex="1">
          <mxGeometry y="52" width="250" height="26" as="geometry" />
        </mxCell>
        <mxCell id="4q8H9GobpHbrrhZok623-19" style="edgeStyle=orthogonalEdgeStyle;rounded=0;orthogonalLoop=1;jettySize=auto;html=1;exitX=0;exitY=0.5;exitDx=0;exitDy=0;entryX=0.548;entryY=-0.026;entryDx=0;entryDy=0;entryPerimeter=0;fontSize=15;" parent="WIyWlLk6GJQsqaUBKTNV-1" source="4q8H9GobpHbrrhZok623-0" target="4q8H9GobpHbrrhZok623-16" edge="1">
          <mxGeometry relative="1" as="geometry" />
        </mxCell>
        <mxCell id="4q8H9GobpHbrrhZok623-30" value="&lt;font style=&quot;font-size: 15px;&quot;&gt;1&lt;/font&gt;" style="edgeLabel;html=1;align=center;verticalAlign=middle;resizable=0;points=[];fontSize=15;" parent="4q8H9GobpHbrrhZok623-19" vertex="1" connectable="0">
          <mxGeometry x="-0.8549" y="-1" relative="1" as="geometry">
            <mxPoint as="offset" />
          </mxGeometry>
        </mxCell>
        <mxCell id="4q8H9GobpHbrrhZok623-31" value="&lt;font style=&quot;font-size: 15px;&quot;&gt;many&lt;/font&gt;" style="edgeLabel;html=1;align=center;verticalAlign=middle;resizable=0;points=[];fontSize=15;" parent="4q8H9GobpHbrrhZok623-19" vertex="1" connectable="0">
          <mxGeometry x="0.6247" y="-1" relative="1" as="geometry">
            <mxPoint as="offset" />
          </mxGeometry>
        </mxCell>
        <mxCell id="4q8H9GobpHbrrhZok623-33" style="edgeStyle=orthogonalEdgeStyle;rounded=0;orthogonalLoop=1;jettySize=auto;html=1;entryX=1;entryY=0.5;entryDx=0;entryDy=0;exitX=0.508;exitY=0.976;exitDx=0;exitDy=0;exitPerimeter=0;fontSize=15;" parent="WIyWlLk6GJQsqaUBKTNV-1" source="hK4hUFkUPG_2YT95JGvy-19" target="hK4hUFkUPG_2YT95JGvy-57" edge="1">
          <mxGeometry relative="1" as="geometry">
            <mxPoint x="1100" y="840" as="sourcePoint" />
            <mxPoint x="827" y="1024" as="targetPoint" />
          </mxGeometry>
        </mxCell>
        <mxCell id="4q8H9GobpHbrrhZok623-34" value="&lt;font style=&quot;font-size: 15px;&quot;&gt;1&lt;/font&gt;" style="edgeLabel;html=1;align=center;verticalAlign=middle;resizable=0;points=[];fontSize=15;" parent="4q8H9GobpHbrrhZok623-33" vertex="1" connectable="0">
          <mxGeometry x="-0.8248" y="-3" relative="1" as="geometry">
            <mxPoint as="offset" />
          </mxGeometry>
        </mxCell>
        <mxCell id="4q8H9GobpHbrrhZok623-35" value="&lt;font style=&quot;font-size: 15px;&quot;&gt;many&lt;/font&gt;" style="edgeLabel;html=1;align=center;verticalAlign=middle;resizable=0;points=[];fontSize=15;" parent="4q8H9GobpHbrrhZok623-33" vertex="1" connectable="0">
          <mxGeometry x="0.8789" y="1" relative="1" as="geometry">
            <mxPoint as="offset" />
          </mxGeometry>
        </mxCell>
        <mxCell id="4q8H9GobpHbrrhZok623-37" style="edgeStyle=orthogonalEdgeStyle;rounded=0;orthogonalLoop=1;jettySize=auto;html=1;fontSize=15;exitX=1.001;exitY=-0.125;exitDx=0;exitDy=0;exitPerimeter=0;" parent="WIyWlLk6GJQsqaUBKTNV-1" source="4q8H9GobpHbrrhZok623-0" edge="1">
          <mxGeometry relative="1" as="geometry">
            <mxPoint x="360" y="627" as="sourcePoint" />
            <mxPoint x="613" y="760" as="targetPoint" />
          </mxGeometry>
        </mxCell>
        <mxCell id="4q8H9GobpHbrrhZok623-38" value="&lt;font style=&quot;font-size: 15px;&quot;&gt;1&lt;/font&gt;" style="edgeLabel;html=1;align=center;verticalAlign=middle;resizable=0;points=[];fontSize=15;" parent="4q8H9GobpHbrrhZok623-37" vertex="1" connectable="0">
          <mxGeometry x="-0.8048" y="1" relative="1" as="geometry">
            <mxPoint as="offset" />
          </mxGeometry>
        </mxCell>
        <mxCell id="4q8H9GobpHbrrhZok623-39" value="&lt;font style=&quot;font-size: 15px;&quot;&gt;many&lt;/font&gt;" style="edgeLabel;html=1;align=center;verticalAlign=middle;resizable=0;points=[];fontSize=15;" parent="4q8H9GobpHbrrhZok623-37" vertex="1" connectable="0">
          <mxGeometry x="0.8209" y="3" relative="1" as="geometry">
            <mxPoint as="offset" />
          </mxGeometry>
        </mxCell>
        <mxCell id="4q8H9GobpHbrrhZok623-56" style="edgeStyle=orthogonalEdgeStyle;rounded=0;orthogonalLoop=1;jettySize=auto;html=1;exitX=0;exitY=0.5;exitDx=0;exitDy=0;fontSize=15;" parent="WIyWlLk6GJQsqaUBKTNV-1" source="4q8H9GobpHbrrhZok623-1" target="hK4hUFkUPG_2YT95JGvy-0" edge="1">
          <mxGeometry relative="1" as="geometry">
            <mxPoint x="210" y="566.64" as="sourcePoint" />
            <mxPoint x="302.8000000000002" y="200.82999999999993" as="targetPoint" />
            <Array as="points">
              <mxPoint x="670" y="202" />
              <mxPoint x="470" y="202" />
              <mxPoint x="265" y="201" />
            </Array>
          </mxGeometry>
        </mxCell>
        <mxCell id="4q8H9GobpHbrrhZok623-57" value="&lt;font style=&quot;font-size: 15px;&quot;&gt;1&lt;/font&gt;" style="edgeLabel;html=1;align=center;verticalAlign=middle;resizable=0;points=[];fontSize=15;" parent="4q8H9GobpHbrrhZok623-56" vertex="1" connectable="0">
          <mxGeometry x="-0.8549" y="-1" relative="1" as="geometry">
            <mxPoint as="offset" />
          </mxGeometry>
        </mxCell>
        <mxCell id="4q8H9GobpHbrrhZok623-58" value="1" style="edgeLabel;html=1;align=center;verticalAlign=middle;resizable=0;points=[];fontSize=15;" parent="4q8H9GobpHbrrhZok623-56" vertex="1" connectable="0">
          <mxGeometry x="0.6247" y="-1" relative="1" as="geometry">
            <mxPoint as="offset" />
          </mxGeometry>
        </mxCell>
        <mxCell id="758hcC7it89ynaX6_QLs-0" value="Roles" style="swimlane;fontStyle=0;childLayout=stackLayout;horizontal=1;startSize=26;fillColor=none;horizontalStack=0;resizeParent=1;resizeParentMax=0;resizeLast=0;collapsible=1;marginBottom=0;whiteSpace=wrap;html=1;fontSize=15;" vertex="1" parent="WIyWlLk6GJQsqaUBKTNV-1">
          <mxGeometry x="1040" y="270" width="270" height="104" as="geometry" />
        </mxCell>
        <mxCell id="758hcC7it89ynaX6_QLs-1" value="Pk &lt;span style=&quot;white-space: pre; font-size: 15px;&quot;&gt;&#x9;&lt;/span&gt;id&lt;span style=&quot;white-space: pre; font-size: 15px;&quot;&gt;&#x9;&lt;/span&gt;&lt;span style=&quot;white-space: pre; font-size: 15px;&quot;&gt;&#x9;&lt;span style=&quot;white-space: pre; font-size: 15px;&quot;&gt;&#x9;&lt;span style=&quot;white-space: pre; font-size: 15px;&quot;&gt;&#x9;&lt;/span&gt;&lt;/span&gt;&lt;/span&gt;tinyInt&lt;span style=&quot;white-space: pre; font-size: 15px;&quot;&gt;&#x9;&lt;/span&gt;" style="text;strokeColor=none;fillColor=none;align=left;verticalAlign=top;spacingLeft=4;spacingRight=4;overflow=hidden;rotatable=0;points=[[0,0.5],[1,0.5]];portConstraint=eastwest;whiteSpace=wrap;html=1;fontSize=15;" vertex="1" parent="758hcC7it89ynaX6_QLs-0">
          <mxGeometry y="26" width="270" height="26" as="geometry" />
        </mxCell>
        <mxCell id="758hcC7it89ynaX6_QLs-2" value="&lt;span style=&quot;white-space: pre; font-size: 15px;&quot;&gt;&#x9;&lt;/span&gt;name&lt;span style=&quot;white-space: pre; font-size: 15px;&quot;&gt;&#x9;&lt;/span&gt;&lt;span style=&quot;white-space: pre; font-size: 15px;&quot;&gt;&#x9;&lt;span style=&quot;white-space: pre; font-size: 15px;&quot;&gt;&#x9;&lt;/span&gt;&lt;/span&gt;varchar(100)" style="text;strokeColor=none;fillColor=none;align=left;verticalAlign=top;spacingLeft=4;spacingRight=4;overflow=hidden;rotatable=0;points=[[0,0.5],[1,0.5]];portConstraint=eastwest;whiteSpace=wrap;html=1;fontSize=15;" vertex="1" parent="758hcC7it89ynaX6_QLs-0">
          <mxGeometry y="52" width="270" height="26" as="geometry" />
        </mxCell>
        <mxCell id="758hcC7it89ynaX6_QLs-3" value="&lt;span style=&quot;white-space: pre; font-size: 15px;&quot;&gt;&#x9;&lt;/span&gt;description&lt;span style=&quot;white-space: pre; font-size: 15px;&quot;&gt;&#x9;&lt;/span&gt;&lt;span style=&quot;white-space: pre; font-size: 15px;&quot;&gt;&#x9;&lt;/span&gt;varchar(100)&lt;span style=&quot;white-space: pre; font-size: 15px;&quot;&gt;&#x9;&lt;/span&gt;&lt;span style=&quot;white-space: pre; font-size: 15px;&quot;&gt;&#x9;&lt;/span&gt;&lt;span style=&quot;white-space: pre; font-size: 15px;&quot;&gt;&#x9;&lt;/span&gt;&lt;span style=&quot;white-space: pre; font-size: 15px;&quot;&gt;&#x9;&lt;/span&gt;&lt;span style=&quot;white-space: pre; font-size: 15px;&quot;&gt;&#x9;&lt;/span&gt;" style="text;strokeColor=none;fillColor=none;align=left;verticalAlign=top;spacingLeft=4;spacingRight=4;overflow=hidden;rotatable=0;points=[[0,0.5],[1,0.5]];portConstraint=eastwest;whiteSpace=wrap;html=1;fontSize=15;" vertex="1" parent="758hcC7it89ynaX6_QLs-0">
          <mxGeometry y="78" width="270" height="26" as="geometry" />
        </mxCell>
        <mxCell id="758hcC7it89ynaX6_QLs-7" value="User_Roles" style="swimlane;fontStyle=0;childLayout=stackLayout;horizontal=1;startSize=26;fillColor=none;horizontalStack=0;resizeParent=1;resizeParentMax=0;resizeLast=0;collapsible=1;marginBottom=0;whiteSpace=wrap;html=1;fontSize=15;" vertex="1" parent="WIyWlLk6GJQsqaUBKTNV-1">
          <mxGeometry x="1241" y="490" width="199" height="78" as="geometry" />
        </mxCell>
        <mxCell id="758hcC7it89ynaX6_QLs-8" value="Pk &lt;span style=&quot;white-space: pre; font-size: 15px;&quot;&gt;&#x9;&lt;/span&gt;id_role&lt;span style=&quot;white-space: pre; font-size: 15px;&quot;&gt;&#x9;&lt;/span&gt;&lt;span style=&quot;white-space: pre; font-size: 15px;&quot;&gt;&#x9;&lt;/span&gt;tinyInt&lt;span style=&quot;white-space: pre; font-size: 15px;&quot;&gt;&#x9;&lt;/span&gt;" style="text;strokeColor=none;fillColor=none;align=left;verticalAlign=top;spacingLeft=4;spacingRight=4;overflow=hidden;rotatable=0;points=[[0,0.5],[1,0.5]];portConstraint=eastwest;whiteSpace=wrap;html=1;fontSize=15;" vertex="1" parent="758hcC7it89ynaX6_QLs-7">
          <mxGeometry y="26" width="199" height="26" as="geometry" />
        </mxCell>
        <mxCell id="758hcC7it89ynaX6_QLs-10" value="Pk&amp;nbsp;&lt;span style=&quot;white-space: pre;&quot;&gt;&#x9;&lt;/span&gt;id_user&lt;span style=&quot;white-space: pre;&quot;&gt;&#x9;&lt;/span&gt;&lt;span style=&quot;white-space: pre;&quot;&gt;&#x9;&lt;/span&gt;tinyInt" style="text;strokeColor=none;fillColor=none;align=left;verticalAlign=top;spacingLeft=4;spacingRight=4;overflow=hidden;rotatable=0;points=[[0,0.5],[1,0.5]];portConstraint=eastwest;whiteSpace=wrap;html=1;fontSize=15;" vertex="1" parent="758hcC7it89ynaX6_QLs-7">
          <mxGeometry y="52" width="199" height="26" as="geometry" />
        </mxCell>
        <mxCell id="758hcC7it89ynaX6_QLs-11" style="edgeStyle=orthogonalEdgeStyle;rounded=0;orthogonalLoop=1;jettySize=auto;html=1;exitX=1.002;exitY=0.769;exitDx=0;exitDy=0;exitPerimeter=0;fontSize=15;entryX=0.598;entryY=1.01;entryDx=0;entryDy=0;entryPerimeter=0;" edge="1" parent="WIyWlLk6GJQsqaUBKTNV-1" source="hK4hUFkUPG_2YT95JGvy-16" target="758hcC7it89ynaX6_QLs-10">
          <mxGeometry relative="1" as="geometry">
            <mxPoint x="1647" y="730" as="sourcePoint" />
            <mxPoint x="1330" y="780" as="targetPoint" />
          </mxGeometry>
        </mxCell>
        <mxCell id="758hcC7it89ynaX6_QLs-12" value="&lt;font style=&quot;font-size: 15px;&quot;&gt;1&lt;/font&gt;" style="edgeLabel;html=1;align=center;verticalAlign=middle;resizable=0;points=[];fontSize=15;" vertex="1" connectable="0" parent="758hcC7it89ynaX6_QLs-11">
          <mxGeometry x="-0.8248" y="-3" relative="1" as="geometry">
            <mxPoint as="offset" />
          </mxGeometry>
        </mxCell>
        <mxCell id="758hcC7it89ynaX6_QLs-13" value="&lt;font style=&quot;font-size: 15px;&quot;&gt;many&lt;/font&gt;" style="edgeLabel;html=1;align=center;verticalAlign=middle;resizable=0;points=[];fontSize=15;" vertex="1" connectable="0" parent="758hcC7it89ynaX6_QLs-11">
          <mxGeometry x="0.8789" y="1" relative="1" as="geometry">
            <mxPoint as="offset" />
          </mxGeometry>
        </mxCell>
        <mxCell id="758hcC7it89ynaX6_QLs-14" style="edgeStyle=orthogonalEdgeStyle;rounded=0;orthogonalLoop=1;jettySize=auto;html=1;exitX=1.007;exitY=0.925;exitDx=0;exitDy=0;exitPerimeter=0;fontSize=15;entryX=0.583;entryY=0.009;entryDx=0;entryDy=0;entryPerimeter=0;" edge="1" parent="WIyWlLk6GJQsqaUBKTNV-1" source="758hcC7it89ynaX6_QLs-1" target="758hcC7it89ynaX6_QLs-7">
          <mxGeometry relative="1" as="geometry">
            <mxPoint x="1060" y="580" as="sourcePoint" />
            <mxPoint x="1199" y="430" as="targetPoint" />
          </mxGeometry>
        </mxCell>
        <mxCell id="758hcC7it89ynaX6_QLs-15" value="&lt;font style=&quot;font-size: 15px;&quot;&gt;1&lt;/font&gt;" style="edgeLabel;html=1;align=center;verticalAlign=middle;resizable=0;points=[];fontSize=15;" vertex="1" connectable="0" parent="758hcC7it89ynaX6_QLs-14">
          <mxGeometry x="-0.8248" y="-3" relative="1" as="geometry">
            <mxPoint as="offset" />
          </mxGeometry>
        </mxCell>
        <mxCell id="758hcC7it89ynaX6_QLs-16" value="&lt;font style=&quot;font-size: 15px;&quot;&gt;many&lt;/font&gt;" style="edgeLabel;html=1;align=center;verticalAlign=middle;resizable=0;points=[];fontSize=15;" vertex="1" connectable="0" parent="758hcC7it89ynaX6_QLs-14">
          <mxGeometry x="0.8789" y="1" relative="1" as="geometry">
            <mxPoint as="offset" />
          </mxGeometry>
        </mxCell>
      </root>
    </mxGraphModel>
  </diagram>
</mxfile>
